<svg width="297" height="40" viewBox="0 0 297 40" fill="none" xmlns="http://www.w3.org/2000/svg">
<path d="M107.919 0.300049H105.116L103.247 6.00559L101.378 0.300049H98.2631C98.886 1.78845 99.509 3.02879 100.132 4.51719C101.066 6.50173 101.689 8.2382 101.689 9.23047V15.1841H104.493V9.23047L107.919 0.300049ZM115.395 11.4631V7.74206C115.395 6.50173 115.083 5.75753 114.46 5.01332C113.837 4.26912 112.903 4.02106 111.657 4.02106C110.411 4.02106 109.477 4.51719 108.854 5.26139C108.231 5.75753 107.919 6.50173 107.919 7.74206V11.7111C107.919 12.9515 108.231 13.6957 108.854 14.1918C109.477 14.936 110.411 15.1841 111.657 15.1841C112.903 15.1841 113.837 14.6879 114.46 13.9437C115.083 13.6957 115.395 12.7034 115.395 11.4631ZM112.903 11.9592C112.903 12.9515 112.592 13.4476 111.657 13.4476C110.723 13.4476 110.411 12.9515 110.411 11.9592V7.24593C110.411 6.25366 110.723 5.75753 111.657 5.75753C112.592 5.75753 112.903 6.25366 112.903 7.24593V11.9592ZM124.74 15.1841V4.02106H122.248V12.4553C121.625 13.1995 121.313 13.4476 120.69 13.4476C120.379 13.4476 120.067 13.1995 120.067 12.9515V4.02106H117.575V12.7034C117.575 13.4476 117.575 13.9437 117.887 14.4399C117.887 14.936 118.51 15.1841 119.444 15.1841C120.379 15.1841 121.313 14.6879 122.248 13.9437V15.1841H124.74ZM125.986 26.3471C125.051 26.3471 124.74 26.8432 124.74 27.8355V28.8278H127.231V27.8355C127.231 26.8432 126.92 26.3471 125.986 26.3471ZM116.952 26.3471C116.641 26.3471 116.018 26.5952 115.706 26.8432V33.541C116.018 33.7891 116.641 34.0372 116.952 34.0372C117.575 34.0372 117.887 33.541 117.887 32.5488V27.8355C117.887 26.8432 117.575 26.3471 116.952 26.3471Z" fill="white"/>
<path d="M132.215 20.8895C131.592 19.153 129.723 17.6646 127.854 17.6646C122.87 17.1685 117.575 17.1685 112.28 17.1685C106.984 17.1685 102.001 17.1685 96.7052 17.6646C94.8363 17.6646 92.9674 19.153 92.3444 20.8895C91.7214 23.3701 91.7214 26.0989 91.7214 28.5795C91.7214 31.0602 91.7214 33.789 92.3444 36.2696C92.9674 38.0061 94.5248 39.2464 96.7052 39.4945C102.001 39.9906 106.984 39.9906 112.28 39.9906C117.575 39.9906 122.559 39.9906 127.854 39.4945C130.035 39.2464 131.903 38.0061 132.215 36.2696C132.838 33.789 132.838 31.0602 132.838 28.5795C132.838 26.0989 132.838 23.3701 132.215 20.8895ZM103.558 23.1221H100.443V35.7735H97.6397V23.1221H94.8363V20.8895H103.558V23.1221ZM111.034 35.7735H108.542V34.5332C107.607 35.5254 106.673 35.7735 105.738 35.7735C104.804 35.7735 104.492 35.5254 104.181 35.0293C104.181 34.7812 103.869 34.2851 103.869 33.2928V24.6105H106.361V33.2928C106.361 33.5409 106.673 33.789 106.984 33.789C107.607 33.789 107.919 33.5409 108.542 32.7967V24.6105H111.034V35.7735ZM120.378 32.3006C120.378 33.2928 120.378 34.037 120.067 34.5332C119.755 35.2774 119.132 35.7735 118.198 35.7735C117.263 35.7735 116.329 35.2774 115.706 34.5332V35.5254H113.214V20.8895H115.706V25.6027C116.641 24.8585 117.263 24.3624 118.198 24.3624C119.132 24.3624 119.755 24.8585 120.067 25.6027C120.378 26.0989 120.378 26.8431 120.378 27.8353V32.3006ZM129.723 30.5641H124.739V32.5486C124.739 33.5409 125.051 34.037 125.985 34.037C126.608 34.037 126.92 33.789 127.231 33.2928V32.0525H129.723V33.5409C129.723 34.037 129.412 34.2851 129.1 34.7812C128.477 35.5254 127.543 36.0216 125.985 36.0216C124.739 36.0216 123.805 35.5254 122.87 34.7812C122.247 34.2851 121.936 33.2928 121.936 32.3006V28.5795C121.936 27.3392 122.247 26.595 122.559 26.0989C123.182 25.3547 124.116 24.8585 125.674 24.8585C126.92 24.8585 127.854 25.3547 128.477 26.0989C129.1 26.595 129.1 27.5873 129.1 28.5795V30.5641H129.723Z" fill="white"/>
<path d="M191.544 0.365723C178.532 0.365723 167.887 9.27984 167.887 20.2587C167.887 30.1853 176.545 38.4244 187.853 39.9134V26.0161H181.844V20.2587H187.853V15.8711C187.853 10.888 191.378 8.1482 196.795 8.1482C199.374 8.1482 202.071 8.52541 202.071 8.52541V13.4292H199.09C196.157 13.4292 195.234 14.9579 195.234 16.5263V20.2587H201.811L200.746 26.0161H195.234V39.9134C200.809 39.1746 205.885 36.7876 209.546 33.1833C213.208 29.579 215.213 24.995 215.2 20.2587C215.2 9.27984 204.555 0.365723 191.544 0.365723Z" fill="white"/>
<path d="M273.474 12.71C271.326 12.71 269.266 13.4233 267.747 14.693C266.228 15.9628 265.374 17.6849 265.374 19.4805C265.374 21.2762 266.228 22.9983 267.747 24.2681C269.266 25.5378 271.326 26.2511 273.474 26.2511C275.623 26.2511 277.683 25.5378 279.202 24.2681C280.721 22.9983 281.575 21.2762 281.575 19.4805C281.575 17.6849 280.721 15.9628 279.202 14.693C277.683 13.4233 275.623 12.71 273.474 12.71Z" fill="white"/>
<path fill-rule="evenodd" clip-rule="evenodd" d="M260.44 0.902057C269.103 0.0993794 277.846 0.0993794 286.51 0.902057C291.243 1.34371 295.058 4.45818 295.614 8.42886C296.642 15.7716 296.642 23.1895 295.614 30.5322C295.058 34.5029 291.243 37.6174 286.512 38.0611C277.848 38.864 269.104 38.864 260.44 38.0611C255.707 37.6174 251.891 34.5029 251.335 30.5343C250.308 23.1908 250.308 15.7723 251.335 8.42886C251.891 4.45818 255.707 1.34371 260.44 0.902057ZM285.936 6.981C285.275 6.981 284.642 7.20048 284.174 7.59117C283.707 7.98186 283.444 8.51174 283.444 9.06426C283.444 9.61677 283.707 10.1467 284.174 10.5373C284.642 10.928 285.275 11.1475 285.936 11.1475C286.597 11.1475 287.231 10.928 287.699 10.5373C288.166 10.1467 288.429 9.61677 288.429 9.06426C288.429 8.51174 288.166 7.98186 287.699 7.59117C287.231 7.20048 286.597 6.981 285.936 6.981ZM261.636 19.4805C261.636 16.8561 262.883 14.3391 265.104 12.4834C267.324 10.6276 270.335 9.58507 273.475 9.58507C276.615 9.58507 279.626 10.6276 281.846 12.4834C284.066 14.3391 285.313 16.8561 285.313 19.4805C285.313 22.105 284.066 24.6219 281.846 26.4777C279.626 28.3335 276.615 29.376 273.475 29.376C270.335 29.376 267.324 28.3335 265.104 26.4777C262.883 24.6219 261.636 22.105 261.636 19.4805Z" fill="white"/>
<path d="M56.471 4.89915C54.8984 6.85068 52.9692 8.51428 50.6832 9.88992C50.7057 10.2589 50.717 10.6759 50.717 11.1409C50.717 13.7249 50.2655 16.3119 49.3624 18.9021C48.4593 21.4923 47.0799 23.9716 45.2241 26.34C43.3682 28.7084 41.1576 30.8065 38.5921 32.6345C36.0267 34.4625 32.9429 35.92 29.3408 37.0071C25.7387 38.0942 21.8782 38.6377 17.7593 38.6377C11.331 38.6377 5.41129 37.1898 0 34.2941C0.96044 34.3833 1.88158 34.4279 2.76343 34.4279C8.13368 34.4279 12.9302 33.0478 17.1529 30.2877C14.649 30.2494 12.4066 29.6063 10.4256 28.3585C8.44462 27.1106 7.08136 25.5161 6.33581 23.5749C7.07273 23.692 7.80005 23.7506 8.51777 23.7506C9.55087 23.7506 10.5674 23.6382 11.5674 23.4133C8.8953 22.9668 6.67852 21.8564 4.91713 20.0822C3.15579 18.3079 2.27512 16.2601 2.27512 13.9386V13.819C3.91529 14.5767 5.6648 14.9797 7.52363 15.0281C5.94067 14.1476 4.68562 12.9995 3.75849 11.5836C2.83129 10.1678 2.36769 8.63564 2.36769 6.98711C2.36769 5.24847 2.88988 3.62946 3.93427 2.1301C6.84018 5.10528 10.3613 7.48314 14.4976 9.26368C18.634 11.0442 23.0715 12.0331 27.8103 12.2303C27.6081 11.5275 27.5069 10.7942 27.5065 10.0302C27.5065 7.36278 28.638 5.08516 30.9008 3.19739C33.1637 1.30961 35.8937 0.365723 39.0909 0.365723C42.4382 0.365723 45.2577 1.38262 47.5493 3.41642C50.1676 2.98371 52.6192 2.20107 54.9041 1.06847C54.0238 3.37984 52.3276 5.16291 49.8154 6.41766C52.1244 6.18875 54.3429 5.68257 56.471 4.89915Z" fill="white"/>
</svg>
