<svg width="100" height="100" viewBox="0 0 100 100" fill="none" xmlns="http://www.w3.org/2000/svg">
<path d="M33.05 61.7222C33.05 50.1667 37.95 39.9444 45.5 33.3333H10L17.5 8.33333H72.5L78.6 28.6667C82.8 30.7222 86.5 33.7222 89.55 37.4444L79.6 5.55556C78.6 2.33333 75.8 0 72.5 0H17.5C14.2 0 11.4 2.33333 10.4 5.55556L0 38.8889V83.3333C0 86.3889 2.25 88.8889 5 88.8889H10C12.75 88.8889 15 86.3889 15 83.3333V77.7778H36.45C34.3 72.9444 33.05 67.5 33.05 61.7222ZM17.5 61.1111C13.35 61.1111 10 57.3889 10 52.7778C10 48.1667 13.35 44.4444 17.5 44.4444C21.65 44.4444 25 48.1667 25 52.7778C25 57.3889 21.65 61.1111 17.5 61.1111ZM65.55 36.7222C78.05 36.7222 88.05 47.8333 88.05 61.7222C88.05 66.6667 86.8 71.2222 84.6 75L100 92.2778L93.05 100L77.5 82.9444C74 85.3333 70 86.7222 65.55 86.7222C53.05 86.7222 43.05 75.6111 43.05 61.7222C43.05 47.8333 53.05 36.7222 65.55 36.7222ZM65.55 47.8333C63.0777 47.8333 60.661 48.6479 58.6054 50.174C56.5498 51.7002 54.9476 53.8693 54.0015 56.4072C53.0554 58.945 52.8079 61.7376 53.2902 64.4318C53.7725 67.126 54.963 69.6008 56.7112 71.5432C58.4593 73.4855 60.6866 74.8083 63.1114 75.3442C65.5361 75.8801 68.0495 75.6051 70.3335 74.5539C72.6176 73.5027 74.5699 71.7225 75.9434 69.4385C77.3169 67.1545 78.05 64.4692 78.05 61.7222C78.05 54 72.5 47.8333 65.55 47.8333Z" fill="black"/>
</svg>
