<svg width="100" height="100" viewBox="0 0 100 100" fill="none" xmlns="http://www.w3.org/2000/svg">
<path d="M55.3899 9.1256e-06C56.8599 9.1256e-06 58.1748 0.914998 58.6698 2.28498L62.1997 12.0699C63.4646 12.3849 64.5496 12.6999 65.4696 13.0299C66.4745 13.3898 67.7695 13.9348 69.3694 14.6798L77.5892 10.3299C78.2601 9.97442 79.0282 9.84611 79.7782 9.96421C80.5283 10.0823 81.2198 10.4404 81.749 10.9849L88.9788 18.4598C89.9387 19.4548 90.2087 20.9098 89.6687 22.1797L85.8139 31.2146C86.4539 32.3896 86.9638 33.3946 87.3538 34.2346C87.7738 35.1496 88.2938 36.4096 88.9138 38.0345L97.8985 41.8845C99.2484 42.4595 100.083 43.8095 99.9934 45.2545L99.3334 55.6293C99.2883 56.3033 99.0463 56.9493 98.6375 57.487C98.2286 58.0248 97.6709 58.4306 97.0335 58.6543L88.5238 61.6793C88.2788 62.8543 88.0238 63.8592 87.7538 64.7092C87.3183 66.0219 86.8211 67.3134 86.2639 68.5792L90.5387 78.0291C90.8404 78.693 90.9217 79.4361 90.7705 80.1496C90.6194 80.8631 90.2438 81.5094 89.6987 81.994L81.569 89.2539C81.0336 89.73 80.3655 90.0311 79.6542 90.1169C78.9429 90.2027 78.2224 90.0691 77.5892 89.7339L69.2094 85.294C67.8984 85.9882 66.5459 86.601 65.1596 87.129L61.4997 88.4989L58.2498 97.4988C58.009 98.1579 57.5746 98.7288 57.0035 99.1366C56.4325 99.5443 55.7515 99.77 55.0499 99.7838L45.5503 99.9988C44.8301 100.018 44.1218 99.8129 43.5228 99.4127C42.9238 99.0125 42.4635 98.4364 42.2054 97.7638L38.3755 87.6289C37.0688 87.1824 35.775 86.6988 34.4956 86.179C33.4493 85.7261 32.4187 85.2374 31.4058 84.714L21.9061 88.7739C21.2801 89.041 20.5901 89.1203 19.9199 89.0022C19.2497 88.8842 18.6282 88.5738 18.1312 88.1089L11.1015 81.514C10.5781 81.0251 10.2216 80.3841 10.0826 79.6815C9.9435 78.979 10.0288 78.2505 10.3265 77.5991L14.4113 68.6992C13.8681 67.6451 13.3644 66.571 12.9014 65.4792C12.3609 64.1429 11.8607 62.7906 11.4014 61.4243L2.45175 58.6993C1.72428 58.4794 1.08977 58.0255 0.646764 57.408C0.203756 56.7904 -0.0229557 56.0439 0.00183728 55.2843L0.351825 45.6795C0.376737 45.0528 0.572501 44.4448 0.917946 43.9214C1.26339 43.3979 1.74537 42.9788 2.31176 42.7095L11.7014 38.1995C12.1364 36.6046 12.5164 35.3646 12.8514 34.4596C13.3231 33.2508 13.8469 32.0631 14.4213 30.8996L10.3515 22.2997C10.0426 21.6467 9.94883 20.9125 10.0836 20.2027C10.2183 19.4929 10.5747 18.8442 11.1015 18.3498L18.1212 11.7199C18.6133 11.2557 19.229 10.9437 19.8943 10.8213C20.5596 10.6989 21.246 10.7713 21.8711 11.0299L31.3608 14.9498C32.4107 14.2498 33.3607 13.6848 34.2207 13.2298C35.2456 12.6849 36.6156 12.1149 38.3405 11.4999L41.6404 2.29498C41.8844 1.62133 42.3303 1.0394 42.9173 0.628657C43.5043 0.217911 44.2038 -0.00163123 44.9203 9.1256e-06H55.3899ZM50.1201 35.0946C41.7854 35.0946 35.0306 41.7695 35.0306 50.0094C35.0306 58.2493 41.7854 64.9292 50.1201 64.9292C58.4498 64.9292 65.2046 58.2493 65.2046 50.0094C65.2046 41.7695 58.4548 35.0946 50.1201 35.0946Z" fill="black"/>
</svg>
